<svg rpl="" aria-hidden="true" fill="currentColor" height="16" icon-name="pin-fill" viewBox="0 0 20 20" width="16" xmlns="http://www.w3.org/2000/svg"><path d="M18.163 6.191a4.194 4.194 0 00-1.237-2.986l-.167-.167a4.197 4.197 0 00-2.986-1.236 4.194 4.194 0 00-2.986 1.237L8.835 4.99a6.267 6.267 0 00-2.708.116 6.276 6.276 0 00-2.798 1.611.902.902 0 00-.001 1.274l3.724 3.723-4.955 4.955a.898.898 0 00.636 1.536c.23 0 .46-.088.636-.264l4.955-4.955 3.644 3.644a.897.897 0 001.273-.001 6.25 6.25 0 001.727-5.499l1.958-1.953a4.197 4.197 0 001.236-2.986h.001z"></path></svg>