<svg width="26" height="26" viewBox="0 0 26 26" fill="none" xmlns="http://www.w3.org/2000/svg">
<path d="M1.14743 16.0153C1.67593 16.7224 2.4522 17.1845 3.33328 17.3163C3.509 17.3426 3.68871 17.3547 3.86576 17.3534L9.40117 17.3534L9.40117 20.9178C9.40117 23.3604 11.4178 25.3477 13.8965 25.3477C14.299 25.3477 14.6638 25.1141 14.8273 24.7516L19.463 14.4732C19.5209 14.3448 19.5508 14.206 19.5508 14.0655L19.5508 1.50294C19.5508 0.948557 19.0947 0.499195 18.5322 0.499195L5.46509 0.499194C5.45451 0.499097 5.44397 0.499049 5.43343 0.499049C4.64208 0.499049 3.87606 0.776217 3.27255 1.28178C2.65939 1.7953 2.25525 2.50994 2.13489 3.29233L0.535356 13.5722C0.401593 14.4405 0.618979 15.3081 1.14743 16.0153ZM2.54922 13.875L4.14875 3.59493C4.24459 2.97212 4.79545 2.50659 5.43343 2.50659C5.4382 2.50659 5.44323 2.50659 5.44801 2.50669C5.45185 2.50669 5.45564 2.50674 5.45948 2.50674L17.5136 2.50674L17.5136 13.8525L13.2704 23.2605C12.2172 22.987 11.4383 22.0404 11.4383 20.9178L11.4383 16.3495C11.4383 15.7952 10.9823 15.3458 10.4198 15.3458L3.8603 15.3458C3.85645 15.3458 3.85261 15.3458 3.84877 15.3458C3.77888 15.3465 3.70826 15.3418 3.63902 15.3314C3.29589 15.2801 2.9936 15.1002 2.78779 14.8248C2.58197 14.5494 2.49736 14.2116 2.54922 13.875Z" fill="#D7D9E4"/>
<path d="M18.5334 2.50588L22.0102 2.50588C22.7266 2.50588 23.3095 3.08026 23.3095 3.78622L23.3095 11.7805C23.3095 12.4865 22.7266 13.0609 22.0102 13.0609L18.5334 13.0609C17.9709 13.0609 17.5149 13.5103 17.5149 14.0646C17.5149 14.6189 17.9709 15.0684 18.5334 15.0684L22.0102 15.0684C23.8499 15.0684 25.3467 13.5934 25.3467 11.7805L25.3467 3.78617C25.3467 1.97324 23.8499 0.498291 22.0102 0.498291L18.5334 0.49829C17.9709 0.49829 17.5149 0.947653 17.5149 1.50204C17.5149 2.05652 17.9709 2.50588 18.5334 2.50588Z" fill="#D7D9E4"/>
</svg>
