<svg width="25" height="26" viewBox="0 0 25 26" fill="none" xmlns="http://www.w3.org/2000/svg">
<path d="M24.1993 9.91633C23.6708 9.20922 22.8945 8.74714 22.0134 8.61537C21.8377 8.58907 21.658 8.57698 21.4809 8.57825H15.9455V5.01388C15.9455 2.57119 13.9289 0.583984 11.4501 0.583984C11.0476 0.583984 10.6828 0.817571 10.5194 1.18006L5.88366 11.4585C5.82579 11.5868 5.7959 11.7257 5.7959 11.8661V24.4287C5.7959 24.9831 6.25195 25.4324 6.81448 25.4324H19.8816C19.8922 25.4325 19.9027 25.4326 19.9133 25.4326C20.7046 25.4326 21.4706 25.1554 22.0741 24.6499C22.6873 24.1363 23.0914 23.4217 23.2118 22.6393L24.8113 12.3594C24.9451 11.4912 24.7277 10.6235 24.1993 9.91633ZM22.7975 12.0567L21.1979 22.3367C21.1021 22.9595 20.5512 23.425 19.9133 23.425C19.9085 23.425 19.9035 23.425 19.8987 23.4249C19.8948 23.4249 19.891 23.4249 19.8872 23.4249H7.83311V12.0792L12.0763 2.67112C13.1295 2.94465 13.9083 3.89128 13.9083 5.01388V9.58209C13.9083 10.1364 14.3643 10.5858 14.9269 10.5858H21.4864C21.4902 10.5858 21.4941 10.5858 21.4979 10.5858C21.5678 10.5852 21.6384 10.5899 21.7077 10.6002C22.0508 10.6515 22.3531 10.8315 22.5589 11.1068C22.7647 11.3822 22.8493 11.72 22.7975 12.0567Z" fill="#D7D9E4"/>
<path d="M6.81324 23.4258H3.33647C2.62008 23.4258 2.03721 22.8514 2.03721 22.1454V14.1511C2.03721 13.4451 2.62008 12.8708 3.33647 12.8708H6.81324C7.37577 12.8708 7.83182 12.4214 7.83182 11.867C7.83182 11.3127 7.37577 10.8633 6.81324 10.8633H3.33647C1.49675 10.8633 0 12.3382 0 14.1512V22.1455C0 23.9584 1.49675 25.4333 3.33647 25.4333H6.81324C7.37582 25.4333 7.83182 24.984 7.83182 24.4296C7.83182 23.8751 7.37577 23.4258 6.81324 23.4258Z" fill="#D7D9E4"/>
</svg>
