<svg width="18" height="18" viewBox="0 0 18 18" fill="none" xmlns="http://www.w3.org/2000/svg">
<path d="M9 17.25C8.80109 17.25 8.61032 17.171 8.46967 17.0303C8.32902 16.8897 8.25 16.6989 8.25 16.5V14.25H5.25C4.85218 14.25 4.47064 14.092 4.18934 13.8107C3.90804 13.5294 3.75 13.1478 3.75 12.75V5.25C3.75 4.85218 3.90804 4.47064 4.18934 4.18934C4.47064 3.90804 4.85218 3.75 5.25 3.75H15.75C16.1478 3.75 16.5294 3.90804 16.8107 4.18934C17.092 4.47064 17.25 4.85218 17.25 5.25V12.75C17.25 13.1478 17.092 13.5294 16.8107 13.8107C16.5294 14.092 16.1478 14.25 15.75 14.25H12.675L9.9 17.0325C9.75 17.1675 9.57 17.25 9.375 17.25H9ZM2.25 11.25H0.75V2.25C0.75 1.85218 0.908035 1.47064 1.18934 1.18934C1.47064 0.908035 1.85218 0.75 2.25 0.75H14.25V2.25H2.25V11.25Z" fill="#767676"/>
</svg>
