<svg width="33" height="33" viewBox="0 0 33 33" fill="none" xmlns="http://www.w3.org/2000/svg">
<path d="M16.3333 0C18.4993 0 20.5765 0.860414 22.108 2.39196C23.6396 3.92351 24.5 6.00073 24.5 8.16667C24.5 10.3326 23.6396 12.4098 22.108 13.9414C20.5765 15.4729 18.4993 16.3333 16.3333 16.3333C14.1674 16.3333 12.0902 15.4729 10.5586 13.9414C9.02708 12.4098 8.16667 10.3326 8.16667 8.16667C8.16667 6.00073 9.02708 3.92351 10.5586 2.39196C12.0902 0.860414 14.1674 0 16.3333 0ZM16.3333 20.4167C25.3575 20.4167 32.6667 24.0713 32.6667 28.5833V32.6667H0V28.5833C0 24.0713 7.30917 20.4167 16.3333 20.4167Z" fill="white"/>
</svg>
