<svg width="55" height="42" viewBox="0 0 55 42" fill="none" xmlns="http://www.w3.org/2000/svg">
<path d="M38.5 35.7501V41.2501H0V35.7501C0 35.7501 0 24.7501 19.25 24.7501C38.5 24.7501 38.5 35.7501 38.5 35.7501ZM28.875 9.6251C28.875 7.72146 28.3105 5.86056 27.2529 4.27774C26.1953 2.69492 24.6921 1.46125 22.9333 0.732761C21.1746 0.00426771 19.2393 -0.186339 17.3723 0.185043C15.5052 0.556426 13.7902 1.47312 12.4441 2.8192C11.098 4.16528 10.1813 5.88029 9.80994 7.74736C9.43856 9.61442 9.62917 11.5497 10.3577 13.3084C11.0862 15.0672 12.3198 16.5704 13.9026 17.628C15.4855 18.6856 17.3464 19.2501 19.25 19.2501C21.8027 19.2501 24.2509 18.236 26.0559 16.431C27.8609 14.626 28.875 12.1778 28.875 9.6251ZM38.335 24.7501C40.0256 26.0584 41.4089 27.7213 42.3876 29.6217C43.3663 31.5222 43.9167 33.6141 44 35.7501V41.2501H55V35.7501C55 35.7501 55 25.7676 38.335 24.7501ZM35.75 0.00010119C33.8574 -0.00870194 32.0067 0.557062 30.4425 1.6226C32.113 3.95663 33.0112 6.75489 33.0112 9.6251C33.0112 12.4953 32.113 15.2936 30.4425 17.6276C32.0067 18.6931 33.8574 19.2589 35.75 19.2501C38.3027 19.2501 40.7509 18.236 42.5559 16.431C44.3609 14.626 45.375 12.1778 45.375 9.6251C45.375 7.07239 44.3609 4.62424 42.5559 2.8192C40.7509 1.01416 38.3027 0.00010119 35.75 0.00010119Z" fill="white"/>
</svg>
