<svg width="64" height="67" viewBox="0 0 64 67" fill="none" xmlns="http://www.w3.org/2000/svg">
<path d="M20 20V33.3333L0 16.6667L20 0V13.3333H36.6667C43.7391 13.3333 50.5219 16.1428 55.5228 21.1438C60.5238 26.1448 63.3333 32.9276 63.3333 40C63.3333 47.0724 60.5238 53.8552 55.5228 58.8562C50.5219 63.8572 43.7391 66.6667 36.6667 66.6667H6.66667V60H36.6667C41.971 60 47.0581 57.8929 50.8088 54.1421C54.5595 50.3914 56.6667 45.3043 56.6667 40C56.6667 34.6957 54.5595 29.6086 50.8088 25.8579C47.0581 22.1071 41.971 20 36.6667 20H20Z" fill="#D9D9D9"/>
</svg>
