<svg width="79" height="79" viewBox="0 0 79 79" fill="none" xmlns="http://www.w3.org/2000/svg">
<path d="M19.7507 59.25L12.1798 66.8209C11.1375 67.8632 9.94368 68.0969 8.59849 67.522C7.2533 66.9471 6.5818 65.9179 6.58399 64.4344V13.1667C6.58399 11.3563 7.22916 9.80701 8.51949 8.51887C9.80982 7.23074 11.3591 6.58557 13.1673 6.58337H65.834C67.6444 6.58337 69.1948 7.22854 70.4851 8.51887C71.7754 9.80921 72.4195 11.3585 72.4173 13.1667V52.6667C72.4173 54.4771 71.7733 56.0275 70.4851 57.3178C69.197 58.6082 67.6466 59.2522 65.834 59.25H19.7507ZM39.5007 49.375C40.4333 49.375 41.2156 49.059 41.8476 48.427C42.4796 47.795 42.7945 47.0138 42.7923 46.0834C42.7901 45.1529 42.4741 44.3717 41.8443 43.7397C41.2145 43.1077 40.4333 42.7917 39.5007 42.7917C38.568 42.7917 37.7868 43.1077 37.157 43.7397C36.5272 44.3717 36.2112 45.1529 36.209 46.0834C36.2068 47.0138 36.5228 47.7961 37.157 48.4303C37.7912 49.0645 38.5724 49.3794 39.5007 49.375ZM39.5007 36.2084C40.4333 36.2084 41.2156 35.8924 41.8476 35.2604C42.4796 34.6284 42.7945 33.8472 42.7923 32.9167V19.75C42.7923 18.8174 42.4763 18.0362 41.8443 17.4064C41.2123 16.7766 40.4311 16.4606 39.5007 16.4584C38.5702 16.4562 37.789 16.7722 37.157 17.4064C36.525 18.0406 36.209 18.8218 36.209 19.75V32.9167C36.209 33.8493 36.525 34.6317 37.157 35.2637C37.789 35.8957 38.5702 36.2106 39.5007 36.2084Z" fill="#D9D9D9"/>
</svg>
