<svg width="72" height="71" viewBox="0 0 72 71" fill="none" xmlns="http://www.w3.org/2000/svg">
<path d="M25.8542 70.8333L24.4375 59.5C23.6701 59.2049 22.9476 58.8507 22.27 58.4375C21.5924 58.0243 20.9277 57.5816 20.276 57.1094L9.73958 61.5365L0 44.7135L9.11979 37.8073C9.06076 37.3941 9.03125 36.9963 9.03125 36.6138V34.2231C9.03125 33.8383 9.06076 33.4392 9.11979 33.026L0 26.1198L9.73958 9.29688L20.276 13.724C20.9253 13.2517 21.6042 12.809 22.3125 12.3958C23.0208 11.9826 23.7292 11.6285 24.4375 11.3333L25.8542 0H45.3333L46.75 11.3333C47.5174 11.6285 48.241 11.9826 48.921 12.3958C49.601 12.809 50.2645 13.2517 50.9115 13.724L61.4479 9.29688L71.1875 26.1198L62.0677 33.026C62.1267 33.4392 62.1562 33.8383 62.1562 34.2231V36.6102C62.1562 36.9951 62.0972 37.3941 61.9792 37.8073L71.099 44.7135L61.3594 61.5365L50.9115 57.1094C50.2622 57.5816 49.5833 58.0243 48.875 58.4375C48.1667 58.8507 47.4583 59.2049 46.75 59.5L45.3333 70.8333H25.8542ZM35.7708 47.8125C39.1944 47.8125 42.1163 46.6024 44.5365 44.1823C46.9566 41.7622 48.1667 38.8403 48.1667 35.4167C48.1667 31.9931 46.9566 29.0712 44.5365 26.651C42.1163 24.2309 39.1944 23.0208 35.7708 23.0208C32.2882 23.0208 29.351 24.2309 26.9592 26.651C24.5674 29.0712 23.3726 31.9931 23.375 35.4167C23.3774 38.8403 24.5733 41.7622 26.9627 44.1823C29.3522 46.6024 32.2882 47.8125 35.7708 47.8125Z" fill="#D9D9D9"/>
</svg>
