<svg width="36" height="36" viewBox="0 0 36 36" fill="none" xmlns="http://www.w3.org/2000/svg">
<path d="M2.98794 19.1873V11.3477C1.81948 10.665 0.913303 9.59932 0.417545 8.32488C-0.0782127 7.05045 -0.134217 5.64265 0.258689 4.33164C1.03848 1.67775 3.64776 0 6.34702 0H16.5742C20.6231 0 23.3824 2.07431 23.8622 5.06375C24.522 8.87681 21.6128 12.2018 17.9838 12.2018H13.4851L5.53724 20.2855C5.32581 20.4963 5.05777 20.6387 4.76688 20.6948C4.476 20.7509 4.1753 20.7182 3.90267 20.6007C3.63005 20.4833 3.39771 20.2864 3.23492 20.0349C3.07214 19.7834 2.9862 19.4885 2.98794 19.1873ZM22.4826 27.4541H18.3137C15.3146 27.4541 12.5553 25.3798 12.0755 22.3903C11.4456 18.5772 14.3548 15.2523 17.9838 15.2523H29.6206C32.3499 15.2523 34.9592 16.93 35.739 19.5839C36.5787 22.4208 35.3191 25.2577 33.0097 26.6304V34.4701C33.0097 35.8428 31.3902 36.5139 30.4604 35.5378L22.4826 27.4541Z" fill="#D3D3D3"/>
</svg>
