<svg width="173" height="32" viewBox="0 0 173 32" fill="none" xmlns="http://www.w3.org/2000/svg">
<g clip-path="url(#clip0_19_98)">
<path d="M11.9323 0.640782H0.347656V31.0564H11.7605C22.5734 31.0564 28.8796 24.5392 28.8796 15.762V15.6744C28.8804 6.89758 22.6587 0.640782 11.9323 0.640782ZM20.3418 15.892C20.3418 20.8008 17.0382 23.5828 12.0615 23.5828H8.6718V8.11438H12.0615C17.0382 8.11438 20.3418 10.9384 20.3418 15.8048V15.892ZM34.4144 31.0548H42.7808V0.640782H34.4144V31.0548ZM62.0885 12.1116C57.9262 11.1552 56.8965 10.5472 56.8965 9.15758V9.06958C56.8965 7.98318 57.884 7.11438 59.8999 7.11438C62.5593 7.11438 65.5631 8.15638 68.3098 10.1128L72.4713 4.15878C69.2099 1.50878 65.2203 0.117582 60.1148 0.117582C52.9065 0.117582 48.4875 4.20158 48.4875 9.85038V9.93758C48.4875 16.1952 53.4215 18.0204 59.8138 19.496C63.89 20.4516 64.8767 21.1468 64.8767 22.4076V22.4944C64.8767 23.7976 63.6751 24.5796 61.4443 24.5796C57.9693 24.5796 54.6653 23.3204 51.7054 20.9304L47.0715 26.536C50.7614 29.882 55.8242 31.5776 61.1445 31.5776C68.4382 31.5776 73.2869 27.8844 73.2869 21.6704V21.5836C73.2865 15.892 68.9955 13.6328 62.0885 12.1116ZM109.712 15.8488V15.7616C109.712 7.02798 102.848 0.0319824 93.5796 0.0319824C84.3127 0.0319824 77.3619 7.11518 77.3619 15.8488V15.9352C77.3619 24.6688 84.2266 31.6648 93.4947 31.6648C96.9267 31.6648 100.059 30.6648 102.633 28.9704L105.937 31.968L110.141 27.232L107.053 24.5828C108.768 22.1056 109.712 19.0632 109.712 15.8488ZM101.26 16.022C101.26 17.0648 101.089 18.064 100.745 18.976L96.6696 15.2392L92.465 20.0188L96.6269 23.626C95.726 23.9736 94.6966 24.1908 93.5812 24.1908C88.9912 24.1908 85.9017 20.3244 85.9017 15.9352V15.8488C85.9017 11.46 88.9477 7.63598 93.4951 7.63598C98.1294 7.63598 101.262 11.5032 101.262 15.9352V16.0216L101.26 16.022ZM134.254 17.76C134.254 22.0172 132.065 24.0156 128.718 24.0156C125.373 24.0156 123.184 21.9312 123.184 17.542V0.640782H114.732V17.7168C114.732 27.2324 120.095 31.622 128.633 31.622C137.172 31.622 142.706 27.3204 142.706 17.5V0.640782H134.254V17.76ZM161.456 12.1116C157.294 11.1552 156.264 10.5472 156.264 9.15758V9.06958C156.264 7.98318 157.251 7.11438 159.268 7.11438C161.927 7.11438 164.931 8.15638 167.677 10.1128L171.839 4.15998C168.579 1.50998 164.589 0.118782 159.484 0.118782C152.276 0.118782 147.856 4.20278 147.856 9.85158V9.93878C147.856 16.1964 152.79 18.0208 159.183 19.4972C163.259 20.4536 164.245 21.1488 164.245 22.4096V22.4956C164.245 23.7988 163.044 24.5816 160.813 24.5816C157.337 24.5816 154.033 23.3208 151.073 20.9316L146.441 26.5364C150.131 29.8832 155.193 31.5772 160.512 31.5772C167.807 31.5772 172.655 27.884 172.655 21.6708V21.5832C172.654 15.892 168.363 13.6328 161.456 12.1116Z" fill="white" fill-opacity="0.6"/>
</g>
<defs>
<clipPath id="clip0_19_98">
<rect width="173" height="32" fill="white"/>
</clipPath>
</defs>
</svg>
