<svg width="102" height="42" viewBox="0 0 102 42" fill="none" xmlns="http://www.w3.org/2000/svg">
<path d="M0 0V35.9898H9.30283V14.0366L17.4066 24.3942L26.1429 14.0366V35.9898H35.4458V0H26.1429L17.4066 11.217L9.30283 0H0Z" fill="white" fill-opacity="0.6"/>
<path d="M79.5469 0V35.9898H100.017L101.999 28.312H88.8497V0H79.5469Z" fill="white" fill-opacity="0.6"/>
<path d="M62.3472 0C51.0103 0 43.9788 5.34866 41.725 13.301C39.5252 21.0628 41.9038 31.3053 47.1136 41.4765L54.8961 35.9898C54.8961 35.9898 51.1958 31.1616 50.4989 23.9236H62.0147V35.9898H72.3518V8.91917H62.0147V16.759H52.4724C53.3718 10.8937 56.8175 7.69251 60.5752 7.69251H74.0982L71.4147 0H62.3472Z" fill="white" fill-opacity="0.6"/>
</svg>
