<svg width="248" height="52" viewBox="0 0 248 52" fill="none" xmlns="http://www.w3.org/2000/svg">
<g clip-path="url(#clip0_0_1)">
<path d="M15.4661 17.862L12.8725 23.9957C12.5464 23.8325 11.769 23.6499 11.0347 23.6499C10.3005 23.6499 9.56408 23.8325 8.84927 24.1782C7.4391 24.8891 6.3982 26.3109 6.3982 28.3619V39.5941H-0.0566406V17.7396H6.21464V20.8064H6.33774C7.80838 18.8564 10.0543 17.4153 12.9761 17.4153C14.0386 17.4153 15.0601 17.6193 15.4682 17.862H15.4661Z" fill="white" fill-opacity="0.6"/>
<path d="M14.2188 28.7291C14.2188 22.4129 18.5702 17.4153 25.0855 17.4153C30.9875 17.4153 35.2159 21.702 35.2159 27.7347C35.2159 28.7914 35.1144 29.7858 34.8898 30.7415H20.1013C20.7751 33.0373 22.777 34.8241 25.7787 34.8241C27.4329 34.8241 29.7825 34.2357 31.048 33.2607L33.0499 38.0542C31.1905 39.3127 28.3529 39.9227 25.8608 39.9227C18.8963 39.9227 14.2188 35.4534 14.2188 28.7313V28.7291ZM19.9782 26.7189H29.2707C29.2707 23.9162 27.3509 22.4322 25.0013 22.4322C22.3451 22.4322 20.5483 24.1374 19.9761 26.7189H19.9782Z" fill="white" fill-opacity="0.6"/>
<path d="M90.5994 7.92053C92.7654 7.92053 94.5405 9.68805 94.5405 11.84C94.5405 13.9919 92.7632 15.7595 90.5994 15.7595C88.4355 15.7595 86.6582 13.9919 86.6582 11.84C86.6582 9.68805 88.4355 7.92053 90.5994 7.92053ZM93.8257 39.5962H87.3708V17.7396H93.8257V39.5962Z" fill="white" fill-opacity="0.6"/>
<path d="M53.1242 8.31567L53.1048 19.812H52.9817C51.2044 18.1261 49.2845 17.4346 46.773 17.4346C40.5838 17.4346 36.4785 22.3914 36.4785 28.6668C36.4785 34.9423 40.3182 39.9205 46.5679 39.9205C49.183 39.9205 51.6536 39.0271 53.2473 36.9954H53.4309V39.5962H59.579V8.31567H53.1242ZM53.4309 34.386H53.2171L51.7766 32.8977C50.8394 33.8276 49.5566 34.386 48.0579 34.386C44.8964 34.386 42.685 31.899 42.685 28.6733C42.685 25.4475 44.8964 22.9605 48.0579 22.9605C51.2195 22.9605 53.4309 25.4475 53.4309 28.6733V34.386Z" fill="white" fill-opacity="0.6"/>
<path d="M77.7746 8.31567L77.7551 19.812H77.6321C75.8548 18.1261 73.9349 17.4346 71.4234 17.4346C65.2342 17.4346 61.1289 22.3914 61.1289 28.6668C61.1289 34.9423 64.9686 39.9205 71.2182 39.9205C73.8334 39.9205 76.3039 39.0271 77.8977 36.9954H78.0812V39.5962H84.2294V8.31567H77.7746ZM78.051 34.386H77.8372L76.3968 32.8977C75.4596 33.8276 74.1768 34.386 72.6781 34.386C69.5165 34.386 67.3052 31.899 67.3052 28.6733C67.3052 25.4475 69.5165 22.9605 72.6781 22.9605C75.8396 22.9605 78.051 25.4475 78.051 28.6733V34.386Z" fill="white" fill-opacity="0.6"/>
<path d="M106.343 17.7396H111.062V23.2032H106.343V39.5962H99.8884V23.2032H95.1914V17.7396H99.8884V11.7992H106.343V17.7396Z" fill="white" fill-opacity="0.6"/>
</g>
<path d="M148.755 40.931C147.591 40.1552 146.767 38.9429 146.282 37.2458C145.797 35.5972 145.555 33.3666 145.555 30.6512V26.9175C145.555 24.1536 145.846 21.9231 146.379 20.2259C146.961 18.5288 147.834 17.3165 148.997 16.5407C150.21 15.7649 151.761 15.377 153.701 15.377C155.592 15.377 157.144 15.7649 158.307 16.5407C159.471 17.3165 160.296 18.5773 160.829 20.2259C161.362 21.8746 161.653 24.1051 161.653 26.9175V30.6512C161.653 33.4151 161.411 35.5972 160.877 37.2943C160.344 38.9429 159.52 40.2037 158.356 40.9795C157.192 41.7553 155.592 42.1433 153.604 42.1433C151.567 42.0948 149.919 41.7069 148.755 40.931ZM155.301 36.8579C155.641 36.0336 155.786 34.6274 155.786 32.7363V24.687C155.786 22.8444 155.641 21.4867 155.301 20.6138C154.962 19.741 154.428 19.3531 153.604 19.3531C152.828 19.3531 152.246 19.7895 151.955 20.6138C151.616 21.4867 151.47 22.8444 151.47 24.687V32.7363C151.47 34.6274 151.616 36.0336 151.955 36.8579C152.246 37.6822 152.828 38.1186 153.652 38.1186C154.428 38.1186 154.962 37.7307 155.301 36.8579Z" fill="white" fill-opacity="0.6"/>
<path d="M238.263 30.6996V32.0088C238.263 33.6575 238.312 34.9182 238.409 35.7426C238.506 36.5669 238.7 37.1972 239.039 37.5367C239.33 37.9246 239.815 38.1185 240.494 38.1185C241.367 38.1185 241.949 37.7791 242.288 37.1003C242.628 36.4214 242.773 35.3061 242.822 33.706L247.816 33.9969C247.864 34.2394 247.864 34.5303 247.864 34.9182C247.864 37.2942 247.234 39.0883 245.925 40.2521C244.616 41.4158 242.773 41.9977 240.397 41.9977C237.536 41.9977 235.548 41.0764 234.384 39.2823C233.221 37.4882 232.639 34.7243 232.639 30.9421V26.4325C232.639 22.5534 233.221 19.741 234.433 17.9468C235.645 16.1527 237.682 15.2799 240.542 15.2799C242.531 15.2799 244.082 15.6678 245.149 16.3952C246.216 17.1225 246.943 18.2863 247.38 19.7894C247.816 21.3411 248.01 23.4747 248.01 26.1901V30.6026H238.263V30.6996ZM238.991 19.8379C238.7 20.2259 238.506 20.8077 238.409 21.6321C238.312 22.4564 238.263 23.7171 238.263 25.4143V27.2569H242.531V25.4143C242.531 23.7656 242.482 22.5049 242.385 21.6321C242.288 20.7592 242.046 20.1774 241.755 19.8379C241.464 19.4985 240.979 19.3046 240.397 19.3046C239.718 19.2561 239.282 19.45 238.991 19.8379Z" fill="white" fill-opacity="0.6"/>
<path d="M134.595 30.2147L128 6.30933H133.77L136.098 17.1225C136.68 19.7895 137.116 22.0685 137.407 23.9596H137.552C137.746 22.6019 138.183 20.3713 138.862 17.171L141.286 6.30933H147.056L140.365 30.2147V41.6583H134.643V30.2147H134.595Z" fill="white" fill-opacity="0.6"/>
<path d="M180.417 15.8618V41.7068H175.859L175.374 38.555H175.229C174.017 40.931 172.126 42.1432 169.653 42.1432C167.955 42.1432 166.695 41.5613 165.87 40.4461C165.046 39.3308 164.658 37.5852 164.658 35.1607V15.8618H170.477V34.8213C170.477 35.985 170.622 36.8094 170.865 37.2943C171.107 37.7792 171.544 38.0216 172.126 38.0216C172.611 38.0216 173.095 37.8761 173.58 37.5367C174.065 37.2458 174.405 36.8579 174.599 36.373V15.8618H180.417Z" fill="white" fill-opacity="0.6"/>
<path d="M210.238 15.8618V41.7068H205.68L205.195 38.555H205.049C203.837 40.931 201.946 42.1432 199.473 42.1432C197.776 42.1432 196.515 41.5613 195.691 40.4461C194.866 39.3308 194.479 37.5852 194.479 35.1607V15.8618H200.297V34.8213C200.297 35.985 200.443 36.8094 200.685 37.2943C200.928 37.7792 201.364 38.0216 201.946 38.0216C202.431 38.0216 202.916 37.8761 203.401 37.5367C203.886 37.2458 204.225 36.8579 204.419 36.373V15.8618H210.238Z" fill="white" fill-opacity="0.6"/>
<path d="M196.224 11.0128H190.453V41.6583H184.78V11.0128H179.01V6.30933H196.224V11.0128Z" fill="white" fill-opacity="0.6"/>
<path d="M229.49 19.9833C229.15 18.3347 228.568 17.1709 227.792 16.4436C227.017 15.7162 225.901 15.3283 224.544 15.3283C223.477 15.3283 222.459 15.6192 221.537 16.2496C220.616 16.8315 219.889 17.6558 219.404 18.6256H219.355V5H213.73V41.6582H218.531L219.113 39.2337H219.258C219.695 40.1065 220.374 40.7854 221.295 41.3188C222.216 41.8037 223.186 42.0946 224.301 42.0946C226.289 42.0946 227.696 41.1733 228.617 39.3792C229.538 37.5851 230.023 34.7242 230.023 30.8935V26.8204C229.975 23.8625 229.829 21.5835 229.49 19.9833ZM224.156 30.5056C224.156 32.3967 224.059 33.8514 223.913 34.9181C223.768 35.9849 223.477 36.7607 223.137 37.1971C222.75 37.6335 222.265 37.876 221.683 37.876C221.198 37.876 220.761 37.779 220.374 37.5366C219.986 37.2941 219.646 36.9547 219.404 36.5183V21.8744C219.598 21.1956 219.937 20.6137 220.422 20.1288C220.907 19.6924 221.44 19.4499 221.974 19.4499C222.556 19.4499 223.04 19.6924 223.331 20.1288C223.671 20.6137 223.865 21.3895 224.01 22.4563C224.156 23.5715 224.204 25.1232 224.204 27.1113V30.5056H224.156Z" fill="white" fill-opacity="0.6"/>
<line x1="118.5" y1="51.1538" x2="118.5" y2="4.95911e-05" stroke="#3A3A3A"/>
<defs>
<clipPath id="clip0_0_1">
<rect width="111" height="32" fill="white" transform="translate(0 8)"/>
</clipPath>
</defs>
</svg>
