<svg width="194" height="44" viewBox="0 0 194 44" fill="none" xmlns="http://www.w3.org/2000/svg">
<path d="M60.5367 6.77155C59.8239 4.12403 57.7364 2.03656 55.0889 1.32376C50.2521 0 30.9048 0 30.9048 0C30.9048 0 11.5575 0 6.72064 1.27285C4.12403 1.98564 1.98564 4.12403 1.27285 6.77155C0 11.6084 0 21.6384 0 21.6384C0 21.6384 0 31.7194 1.27285 36.5053C1.98564 39.1528 4.07312 41.2403 6.72064 41.9531C11.6084 43.2769 30.9048 43.2769 30.9048 43.2769C30.9048 43.2769 50.2521 43.2769 55.0889 42.004C57.7364 41.2912 59.8239 39.2037 60.5367 36.5562C61.8095 31.7194 61.8095 21.6893 61.8095 21.6893C61.8095 21.6893 61.8604 11.6084 60.5367 6.77155Z" fill="#FF0000" fill-opacity="0.6"/>
<path d="M60.5367 6.77155C59.8239 4.12403 57.7364 2.03656 55.0889 1.32376C50.2521 0 30.9048 0 30.9048 0C30.9048 0 11.5575 0 6.72064 1.27285C4.12403 1.98564 1.98564 4.12403 1.27285 6.77155C0 11.6084 0 21.6384 0 21.6384C0 21.6384 0 31.7194 1.27285 36.5053C1.98564 39.1528 4.07312 41.2403 6.72064 41.9531C11.6084 43.2769 30.9048 43.2769 30.9048 43.2769C30.9048 43.2769 50.2521 43.2769 55.0889 42.004C57.7364 41.2912 59.8239 39.2037 60.5367 36.5562C61.8095 31.7194 61.8095 21.6893 61.8095 21.6893C61.8095 21.6893 61.8604 11.6084 60.5367 6.77155Z" fill="#FF0000" fill-opacity="0.6"/>
<path d="M24.7441 12.3722V30.9049L40.8329 21.6385L24.7441 12.3722Z" fill="white" fill-opacity="0.6"/>
<path d="M89.7646 39.4075C88.5427 38.5928 87.6771 37.32 87.168 35.538C86.6589 33.8069 86.4043 31.4649 86.4043 28.6137V24.6933C86.4043 21.7912 86.7098 19.4492 87.2698 17.6672C87.8808 15.8852 88.7973 14.6124 90.0192 13.7977C91.292 12.9831 92.9213 12.5758 94.9578 12.5758C96.9435 12.5758 98.5727 12.9831 99.7947 13.7977C101.017 14.6124 101.882 15.9361 102.442 17.6672C103.002 19.3983 103.308 21.7403 103.308 24.6933V28.6137C103.308 31.5158 103.053 33.8069 102.493 35.5889C101.933 37.32 101.068 38.6437 99.8456 39.4584C98.6236 40.273 96.9435 40.6803 94.856 40.6803C92.7176 40.6294 90.9866 40.2221 89.7646 39.4075ZM96.638 35.1307C96.9944 34.2651 97.1471 32.7886 97.1471 30.803V22.3513C97.1471 20.4166 96.9944 18.991 96.638 18.0745C96.2816 17.1581 95.7216 16.7507 94.856 16.7507C94.0414 16.7507 93.4304 17.209 93.1249 18.0745C92.7685 18.991 92.6158 20.4166 92.6158 22.3513V30.803C92.6158 32.7886 92.7685 34.2651 93.1249 35.1307C93.4304 35.9962 94.0414 36.4544 94.9069 36.4544C95.7215 36.4544 96.2816 36.0471 96.638 35.1307Z" fill="white" fill-opacity="0.6"/>
<path d="M183.75 28.6646V30.0393C183.75 31.7704 183.801 33.0941 183.903 33.9597C184.004 34.8252 184.208 35.4871 184.564 35.8435C184.87 36.2508 185.379 36.4545 186.092 36.4545C187.008 36.4545 187.619 36.0981 187.976 35.3853C188.332 34.6725 188.485 33.5015 188.536 31.8213L193.78 32.1268C193.831 32.3814 193.831 32.6868 193.831 33.0941C193.831 35.5889 193.169 37.4727 191.794 38.6947C190.42 39.9166 188.485 40.5276 185.99 40.5276C182.986 40.5276 180.899 39.5602 179.677 37.6764C178.455 35.7926 177.844 32.8905 177.844 28.9192V24.1842C177.844 20.1111 178.455 17.1581 179.728 15.2743C181 13.3905 183.139 12.474 186.143 12.474C188.23 12.474 189.859 12.8813 190.98 13.645C192.1 14.4087 192.863 15.6307 193.322 17.209C193.78 18.8382 193.983 21.0785 193.983 23.9296V28.5628H183.75V28.6646ZM184.513 17.2599C184.208 17.6672 184.004 18.2782 183.903 19.1437C183.801 20.0093 183.75 21.333 183.75 23.115V25.0497H188.23V23.115C188.23 21.3839 188.179 20.0602 188.077 19.1437C187.976 18.2273 187.721 17.6163 187.416 17.2599C187.11 16.9035 186.601 16.6999 185.99 16.6999C185.277 16.6489 184.819 16.8526 184.513 17.2599Z" fill="white" fill-opacity="0.6"/>
<path d="M74.897 28.1555L67.9727 3.05493H74.0314L76.4753 14.4087C77.0863 17.209 77.5445 19.602 77.85 21.5876H78.0027C78.2064 20.162 78.6646 17.82 79.3774 14.4597L81.9231 3.05493H87.9818L80.9557 28.1555V40.1712H74.9479V28.1555H74.897Z" fill="white" fill-opacity="0.6"/>
<path d="M123.01 13.085V40.2221H118.224L117.715 36.9127H117.562C116.289 39.4075 114.304 40.6803 111.707 40.6803C109.925 40.6803 108.601 40.0694 107.736 38.8983C106.87 37.7273 106.463 35.8944 106.463 33.3487V13.085H112.573V32.9923C112.573 34.2143 112.725 35.0798 112.98 35.5889C113.234 36.0981 113.693 36.3526 114.304 36.3526C114.813 36.3526 115.322 36.1999 115.831 35.8435C116.34 35.538 116.697 35.1307 116.9 34.6216V13.085H123.01Z" fill="white" fill-opacity="0.6"/>
<path d="M154.322 13.085V40.2221H149.537L149.027 36.9127H148.875C147.602 39.4075 145.616 40.6803 143.02 40.6803C141.238 40.6803 139.914 40.0694 139.048 38.8983C138.183 37.7273 137.775 35.8944 137.775 33.3487V13.085H143.885V32.9923C143.885 34.2143 144.038 35.0798 144.292 35.5889C144.547 36.0981 145.005 36.3526 145.616 36.3526C146.125 36.3526 146.634 36.1999 147.144 35.8435C147.653 35.538 148.009 35.1307 148.213 34.6216V13.085H154.322Z" fill="white" fill-opacity="0.6"/>
<path d="M139.608 7.99358H133.549V40.1712H127.592V7.99358H121.533V3.05493H139.608V7.99358Z" fill="white" fill-opacity="0.6"/>
<path d="M174.535 17.4126C174.179 15.6815 173.568 14.4596 172.753 13.6959C171.939 12.9322 170.768 12.5248 169.342 12.5248C168.222 12.5248 167.153 12.8303 166.185 13.4922C165.218 14.1032 164.454 14.9687 163.945 15.987H163.894V1.68018H157.988V40.1711H163.029L163.64 37.6254H163.792C164.251 38.5419 164.963 39.2547 165.931 39.8147C166.898 40.3239 167.917 40.6293 169.088 40.6293C171.175 40.6293 172.652 39.662 173.619 37.7782C174.586 35.8943 175.095 32.8904 175.095 28.8682V24.5915C175.044 21.4857 174.892 19.0927 174.535 17.4126ZM168.935 28.4609C168.935 30.4466 168.833 31.974 168.68 33.0941C168.527 34.2142 168.222 35.0288 167.866 35.487C167.458 35.9453 166.949 36.1998 166.338 36.1998C165.829 36.1998 165.371 36.098 164.963 35.8434C164.556 35.5889 164.2 35.2325 163.945 34.7742V19.3982C164.149 18.6854 164.505 18.0745 165.014 17.5653C165.524 17.1071 166.084 16.8525 166.644 16.8525C167.255 16.8525 167.764 17.1071 168.069 17.5653C168.426 18.0745 168.629 18.8891 168.782 20.0092C168.935 21.1802 168.986 22.8095 168.986 24.8969V28.4609H168.935Z" fill="white" fill-opacity="0.6"/>
</svg>
